# xmcd CD database file
#
# Track frame offsets:
#	150
#	26301
#	53000
#	75828
#
# Disc length: 1200 seconds
#
# Revision: 0
# Processed by: cddbd v1.5.1PL2 Copyright (c) Steve Scherf et al.
# Submitted via: Feurio! 1.68 - http://www.feurio.com
#
DISCID=1a04ae04
DTITLE=BLUE INK - blue ink
DYEAR=1900
DGENRE=
TTITLE0=Ten cholerny pech
TTITLE1=Podró¿ w nieznane
TTITLE2=Kolejny dzieñ
TTITLE3=Deszcz i zi¹b
EXTD=
EXTT0=
EXTT1=
EXTT2=
EXTT3=
PLAYORDER=
